#!OML:ASF X:\für Bonn\!DataBase\2005_08_10_Bjorn_Final\c3d\bjorn.ASF
:FULLY-SPECIFIED
:DEGREES
139
root 0.587793 16.3834 3.0102 -174.8 -7.84887 176.329
lowerback 16.1794 0.427625 3.4667
upperback 11.991 -1.21997 0.449168
thorax 3.74334 -1.30694 -1.37971
lowerneck -17.3827 -4.77033 2.44749
upperneck -7.57491 -8.04776 1.74124
head 0.42919 -4.6079 -0.294347
rclavicle -1.39149e-014 7.95139e-016
rhumerus 80.9799 -3.19813 -72.557
rradius 8.42264
rwrist 49.3666
rhand -12.4218 9.0295
rfingers 7.12502
rthumb 13.6505 -20.5029
lclavicle -1.39149e-014 7.95139e-016
lhumerus 80.6484 -4.13039 58.1867
lradius 11.8331
lwrist -41.9171
lhand -17.6297 -8.38061
lfingers 7.12502
lthumb 8.62767 21.4231
rfemur -43.5415 -7.58822 12.7111
rtibia 81.7251
rfoot -30.6679 15.4624
rtoes -25.6287
lfemur -47.0342 2.57837 -21.9439
ltibia 84.8641
lfoot -19.5732 -9.62868
ltoes -18.7406
140
root 0.589352 16.5928 2.95671 -174.72 -7.92135 176.344
lowerback 15.4887 0.419915 3.42824
upperback 11.8909 -1.19176 0.511956
thorax 3.99429 -1.26697 -1.30707
lowerneck -17.0193 -4.90801 2.37523
upperneck -7.29637 -8.13879 1.69716
head 0.46223 -4.61813 -0.295499
rclavicle 1.66979e-014 -3.97569e-014
rhumerus 80.7459 -3.04558 -72.4471
rradius 8.46995
rwrist 49.3243
rhand -12.4256 8.96203
rfingers 7.12502
rthumb 13.6469 -20.5706
lclavicle 1.66979e-014 -3.97569e-014
lhumerus 80.6026 -4.27894 57.7812
lradius 11.8267
lwrist -40.9843
lhand -17.5018 -8.41553
lfingers 7.12502
lthumb 8.7511 21.3831
rfemur -42.098 -7.48575 12.8242
rtibia 79.3063
rfoot -29.9802 15.1403
rtoes -25.7541
lfemur -45.5791 2.4222 -21.8527
ltibia 82.458
lfoot -19.1135 -9.65425
ltoes -18.5872
141
root 0.590248 16.796 2.90248 -174.615 -7.97988 176.375
lowerback 14.7629 0.409766 3.42997
upperback 11.7784 -1.1581 0.541201
thorax 4.25239 -1.21829 -1.2927
lowerneck -16.686 -5.05262 2.29694
upperneck -6.94014 -8.23348 1.72599
head 0.528703 -4.62476 -0.276608
rclavicle -2.5842e-014 -2.94201e-014
rhumerus 80.5292 -2.90329 -72.3912
rradius 8.52027
rwrist 49.0846
rhand -12.2739 8.91564
rfingers 7.12502
rthumb 13.793 -20.6071
lclavicle -2.5842e-014 -2.94201e-014
lhumerus 80.5584 -4.4528 57.252
lradius 11.8815
lwrist -39.7917
lhand -17.3058 -8.48919
lfingers 7.12502
lthumb 8.94022 21.3014
rfemur -40.7121 -7.39625 12.9466
rtibia 76.9195
rfoot -29.1963 14.8113
rtoes -25.9992
lfemur -44.1517 2.22291 -21.7139
ltibia 80.0405
lfoot -18.5577 -9.81715
ltoes -17.7816
142
root 0.591177 16.9965 2.84835 -174.491 -8.01771 176.352
lowerback 14.0118 0.422516 3.36042
upperback 11.6808 -1.10686 0.578868
thorax 4.54365 -1.16664 -1.2315
lowerneck -16.4131 -5.21546 2.1778
upperneck -6.52233 -8.34792 1.74895
head 0.626332 -4.63911 -0.257937
rclavicle -2.78299e-015 -9.54166e-015
rhumerus 80.4285 -2.80047 -72.2954
rradius 8.53419
rwrist 48.7078
rhand -12.0528 8.8934
rfingers 7.12502
rthumb 14.0061 -20.6147
lclavicle -2.78299e-015 -9.54166e-015
lhumerus 80.5119 -4.60538 57.0807
lradius 11.976
lwrist -38.9156
lhand -17.1596 -8.54583
lfingers 7.12502
lthumb 9.08132 21.2387
rfemur -39.3826 -7.32591 12.9969
rtibia 74.5698
rfoot -28.2399 14.5976
rtoes -25.9486
lfemur -42.727 2.02783 -21.6296
ltibia 77.5905
lfoot -17.9675 -10.0219
ltoes -16.7678
143
root 0.592375 17.1919 2.7943 -174.38 -8.05294 176.327
lowerback 13.2952 0.4238 3.29696
upperback 11.5579 -1.06297 0.591851
thorax 4.79054 -1.11679 -1.19654
lowerneck -16.1311 -5.38096 2.05475
upperneck -6.00197 -8.45665 1.81992
head 0.758633 -4.64363 -0.226043
rclavicle 4.77083e-015 -2.14687e-014
rhumerus 80.3166 -2.66797 -72.2414
rradius 8.53773
rwrist 48.2983
rhand -11.8468 8.84772
rfingers 7.12502
rthumb 14.2046 -20.6466
lclavicle 4.77083e-015 -2.14687e-014
lhumerus 80.3826 -4.78131 56.9213
lradius 12.1201
lwrist -38.2646
lhand -17.198 -8.50932
lfingers 7.12502
lthumb 9.04428 21.2768
rfemur -38.0765 -7.2586 13.0344
rtibia 72.2627
rfoot -27.2111 14.3799
rtoes -25.886
lfemur -41.2895 1.85653 -21.5553
ltibia 75.1202
lfoot -17.3898 -10.171
ltoes -16.0944
144
root 0.594209 17.3857 2.73917 -174.275 -8.07186 176.265
lowerback 12.5385 0.441747 3.17634
upperback 11.4935 -1.01874 0.606449
thorax 5.12622 -1.0747 -1.12943
lowerneck -16.0017 -5.5418 1.93537
upperneck -5.39542 -8.57136 1.8564
head 0.943383 -4.65202 -0.213929
rclavicle 2.78299e-015 1.90833e-014
rhumerus 80.2793 -2.54897 -72.1856
rradius 8.59081
rwrist 47.8179
rhand -11.6392 8.79356
rfingers 7.12502
rthumb 14.4046 -20.6866
lclavicle 2.78299e-015 1.90833e-014
lhumerus 80.2803 -4.87381 57.077
lradius 12.3019
lwrist -37.9457
lhand -17.3285 -8.56137
lfingers 7.12502
lthumb 8.91838 21.2301
rfemur -36.792 -7.20739 13.0149
rtibia 69.9959
rfoot -26.0781 14.2824
rtoes -25.5422
lfemur -39.8266 1.70003 -21.5299
ltibia 72.6133
lfoot -16.8163 -10.2229
ltoes -15.9236
145
root 0.594716 17.5751 2.6847 -174.162 -8.08603 176.222
lowerback 11.7764 0.458103 3.07503
upperback 11.413 -0.970111 0.623945
thorax 5.45028 -1.02856 -1.06902
lowerneck -15.7513 -5.71396 1.81004
upperneck -4.87618 -8.70189 1.91451
head 1.08081 -4.67247 -0.187667
rclavicle 1.07344e-014 7.95139e-015
rhumerus 80.2005 -2.42115 -72.1295
rradius 8.67853
rwrist 47.4035
rhand -11.4562 8.73844
rfingers 7.12502
rthumb 14.581 -20.729
lclavicle 1.07344e-014 7.95139e-015
lhumerus 80.1406 -4.99016 57.275
lradius 12.5539
lwrist -37.4956
lhand -17.3398 -8.61329
lfingers 7.12502
lthumb 8.90749 21.1787
rfemur -35.5607 -7.17126 12.9967
rtibia 67.7787
rfoot -24.866 14.2486
rtoes -25.0112
lfemur -38.3744 1.53871 -21.492
ltibia 70.0833
lfoot -16.2598 -10.2718
ltoes -15.966
146
root 0.595783 17.7617 2.62992 -174.084 -8.0739 176.219
lowerback 11.0871 0.466289 3.02141
upperback 11.2972 -0.920036 0.626097
thorax 5.69875 -0.977975 -1.04821
lowerneck -15.2561 -5.86042 1.73124
upperneck -4.56702 -8.80865 1.96151
head 1.1048 -4.69196 -0.155184
rclavicle -7.55382e-015 4.77083e-015
rhumerus 80.0775 -2.26444 -72.1124
rradius 8.75219
rwrist 47.0153
rhand -11.3205 8.6755
rfingers 7.12502
rthumb 14.7117 -20.7825
lclavicle -7.55382e-015 4.77083e-015
lhumerus 80.0001 -5.16264 57.1005
lradius 12.7642
lwrist -36.6744
lhand -17.3727 -8.59373
lfingers 7.12502
lthumb 8.87569 21.1996
rfemur -34.3352 -7.1384 13.0173
rtibia 65.5869
rfoot -23.6013 14.2557
rtoes -24.301
lfemur -36.8812 1.42535 -21.4113
ltibia 67.5244
lfoot -15.6533 -10.3358
ltoes -15.7751
147
root 0.59684 17.9453 2.57384 -174.049 -8.05475 176.268
lowerback 10.4553 0.481173 3.0217
upperback 11.175 -0.859122 0.64981
thorax 5.91211 -0.921192 -1.03345
lowerneck -14.6619 -6.01399 1.59337
upperneck -4.4294 -8.9262 2.043
head 1.05949 -4.72542 -0.0942561
rclavicle -1.78906e-014 -6.36111e-015
rhumerus 79.8794 -2.11724 -72.0753
rradius 8.99118
rwrist 46.6331
rhand -11.0479 8.59769
rfingers 7.12502
rthumb 14.9743 -20.8409
lclavicle -1.78906e-014 -6.36111e-015
lhumerus 79.8669 -5.36404 56.9303
lradius 12.9393
lwrist -35.8912
lhand -17.519 -8.58884
lfingers 7.12502
lthumb 8.73453 21.2104
rfemur -33.1055 -7.1019 13.0863
rtibia 63.4288
rfoot -22.3576 14.23
rtoes -23.7907
lfemur -35.3339 1.3486 -21.2699
ltibia 64.9409
lfoot -15.0394 -10.4084
ltoes -15.7413
148
root 0.596807 18.126 2.51441 -174.005 -7.98968 176.346
lowerback 9.83608 0.51521 3.06039
upperback 11.0171 -0.762036 0.664687
thorax 6.08258 -0.841388 -1.04885
lowerneck -14.0321 -6.17406 1.48663
upperneck -4.29432 -9.058 2.08978
head 1.00438 -4.76769 -0.0479773
rclavicle 5.76476e-014 1.82882e-014
rhumerus 79.6524 -1.99577 -72.0435
rradius 9.19357
rwrist 46.2447
rhand -10.8318 8.52615
rfingers 7.12502
rthumb 15.1825 -20.8968
lclavicle 5.76476e-014 1.82882e-014
lhumerus 79.7472 -5.6416 56.7465
lradius 13.0112
lwrist -35.3007
lhand -17.84 -8.52298
lfingers 7.12502
lthumb 8.42473 21.289
rfemur -31.9446 -7.04634 13.1698
rtibia 61.2923
rfoot -21.0503 14.2194
rtoes -22.9566
lfemur -33.777 1.30396 -21.1142
ltibia 62.3381
lfoot -14.4525 -10.4261
ltoes -15.957
